<mxfile host="app.diagrams.net" modified="2023-08-25T19:14:59.889Z" agent="Mozilla/5.0 (X11; Linux x86_64; rv:109.0) Gecko/20100101 Firefox/116.0" etag="-ZZanqsLgQtcJkIeQgbs" version="21.6.9" type="google">
  <diagram name="Page-1" id="b5b7bab2-c9e2-2cf4-8b2a-24fd1a2a6d21">
    <mxGraphModel grid="1" page="1" gridSize="10" guides="1" tooltips="1" connect="1" arrows="1" fold="1" pageScale="1" pageWidth="827" pageHeight="1169" background="none" math="0" shadow="0">
      <root>
        <mxCell id="0" />
        <mxCell id="1" parent="0" />
        <mxCell id="3keSKE4vALC_CuYDAisd-1" value="refeição" style="swimlane;fontStyle=1;align=center;verticalAlign=top;childLayout=stackLayout;horizontal=1;startSize=26;horizontalStack=0;resizeParent=1;resizeParentMax=0;resizeLast=0;collapsible=1;marginBottom=0;whiteSpace=wrap;html=1;" vertex="1" parent="1">
          <mxGeometry x="110" y="260" width="160" height="80" as="geometry" />
        </mxCell>
        <mxCell id="3keSKE4vALC_CuYDAisd-2" value="+ ingredientes" style="text;strokeColor=none;fillColor=none;align=left;verticalAlign=top;spacingLeft=4;spacingRight=4;overflow=hidden;rotatable=0;points=[[0,0.5],[1,0.5]];portConstraint=eastwest;whiteSpace=wrap;html=1;" vertex="1" parent="3keSKE4vALC_CuYDAisd-1">
          <mxGeometry y="26" width="160" height="26" as="geometry" />
        </mxCell>
        <mxCell id="3keSKE4vALC_CuYDAisd-3" value="" style="line;strokeWidth=1;fillColor=none;align=left;verticalAlign=middle;spacingTop=-1;spacingLeft=3;spacingRight=3;rotatable=0;labelPosition=right;points=[];portConstraint=eastwest;strokeColor=inherit;" vertex="1" parent="3keSKE4vALC_CuYDAisd-1">
          <mxGeometry y="52" width="160" height="28" as="geometry" />
        </mxCell>
        <mxCell id="3keSKE4vALC_CuYDAisd-5" value="cardápio" style="swimlane;fontStyle=1;align=center;verticalAlign=top;childLayout=stackLayout;horizontal=1;startSize=26;horizontalStack=0;resizeParent=1;resizeParentMax=0;resizeLast=0;collapsible=1;marginBottom=0;whiteSpace=wrap;html=1;" vertex="1" parent="1">
          <mxGeometry x="110" y="70" width="160" height="90" as="geometry" />
        </mxCell>
        <mxCell id="3keSKE4vALC_CuYDAisd-6" value="&lt;div&gt;+ dia&lt;/div&gt;&lt;div&gt;+ refeições&lt;/div&gt;" style="text;strokeColor=none;fillColor=none;align=left;verticalAlign=top;spacingLeft=4;spacingRight=4;overflow=hidden;rotatable=0;points=[[0,0.5],[1,0.5]];portConstraint=eastwest;whiteSpace=wrap;html=1;" vertex="1" parent="3keSKE4vALC_CuYDAisd-5">
          <mxGeometry y="26" width="160" height="34" as="geometry" />
        </mxCell>
        <mxCell id="3keSKE4vALC_CuYDAisd-7" value="" style="line;strokeWidth=1;fillColor=none;align=left;verticalAlign=middle;spacingTop=-1;spacingLeft=3;spacingRight=3;rotatable=0;labelPosition=right;points=[];portConstraint=eastwest;strokeColor=inherit;" vertex="1" parent="3keSKE4vALC_CuYDAisd-5">
          <mxGeometry y="60" width="160" height="30" as="geometry" />
        </mxCell>
        <mxCell id="Lf1C1IOdyT0QIfwiywIE-4" value="ingrediente" style="swimlane;fontStyle=1;align=center;verticalAlign=top;childLayout=stackLayout;horizontal=1;startSize=26;horizontalStack=0;resizeParent=1;resizeParentMax=0;resizeLast=0;collapsible=1;marginBottom=0;whiteSpace=wrap;html=1;" vertex="1" parent="1">
          <mxGeometry x="110" y="400" width="160" height="82" as="geometry" />
        </mxCell>
        <mxCell id="Lf1C1IOdyT0QIfwiywIE-5" value="&lt;div&gt;+ tabelaNutricional&lt;br&gt;&lt;/div&gt;&lt;div&gt;+ ingredientes&lt;br&gt;&lt;/div&gt;" style="text;strokeColor=none;fillColor=none;align=left;verticalAlign=top;spacingLeft=4;spacingRight=4;overflow=hidden;rotatable=0;points=[[0,0.5],[1,0.5]];portConstraint=eastwest;whiteSpace=wrap;html=1;" vertex="1" parent="Lf1C1IOdyT0QIfwiywIE-4">
          <mxGeometry y="26" width="160" height="34" as="geometry" />
        </mxCell>
        <mxCell id="Lf1C1IOdyT0QIfwiywIE-6" value="" style="line;strokeWidth=1;fillColor=none;align=left;verticalAlign=middle;spacingTop=-1;spacingLeft=3;spacingRight=3;rotatable=0;labelPosition=right;points=[];portConstraint=eastwest;strokeColor=inherit;" vertex="1" parent="Lf1C1IOdyT0QIfwiywIE-4">
          <mxGeometry y="60" width="160" height="22" as="geometry" />
        </mxCell>
        <mxCell id="u5eRn1HK8_eCPN_-Qu_B-3" value="&lt;div&gt;&lt;br&gt;&lt;/div&gt;&lt;div&gt;&lt;br&gt;&lt;/div&gt;" style="endArrow=open;html=1;endSize=12;startArrow=diamondThin;startSize=14;startFill=0;edgeStyle=orthogonalEdgeStyle;align=left;verticalAlign=top;rounded=0;entryX=0.5;entryY=1;entryDx=0;entryDy=0;" edge="1" parent="Lf1C1IOdyT0QIfwiywIE-4" target="Lf1C1IOdyT0QIfwiywIE-4">
          <mxGeometry x="-1" y="3" relative="1" as="geometry">
            <mxPoint y="40" as="sourcePoint" />
            <mxPoint x="80" y="110" as="targetPoint" />
            <Array as="points">
              <mxPoint x="-30" y="40" />
              <mxPoint x="-30" y="120" />
              <mxPoint x="80" y="120" />
            </Array>
          </mxGeometry>
        </mxCell>
        <mxCell id="Lf1C1IOdyT0QIfwiywIE-8" value="consumo" style="swimlane;fontStyle=1;align=center;verticalAlign=top;childLayout=stackLayout;horizontal=1;startSize=26;horizontalStack=0;resizeParent=1;resizeParentMax=0;resizeLast=0;collapsible=1;marginBottom=0;whiteSpace=wrap;html=1;" vertex="1" parent="1">
          <mxGeometry x="480" y="180" width="160" height="118" as="geometry" />
        </mxCell>
        <mxCell id="Lf1C1IOdyT0QIfwiywIE-9" value="&lt;div&gt;+ refeições&lt;/div&gt;&lt;div&gt;+ quantidade&lt;br&gt;&lt;/div&gt;" style="text;strokeColor=none;fillColor=none;align=left;verticalAlign=top;spacingLeft=4;spacingRight=4;overflow=hidden;rotatable=0;points=[[0,0.5],[1,0.5]];portConstraint=eastwest;whiteSpace=wrap;html=1;" vertex="1" parent="Lf1C1IOdyT0QIfwiywIE-8">
          <mxGeometry y="26" width="160" height="54" as="geometry" />
        </mxCell>
        <mxCell id="Lf1C1IOdyT0QIfwiywIE-10" value="" style="line;strokeWidth=1;fillColor=none;align=left;verticalAlign=middle;spacingTop=-1;spacingLeft=3;spacingRight=3;rotatable=0;labelPosition=right;points=[];portConstraint=eastwest;strokeColor=inherit;" vertex="1" parent="Lf1C1IOdyT0QIfwiywIE-8">
          <mxGeometry y="80" width="160" height="38" as="geometry" />
        </mxCell>
        <mxCell id="Lf1C1IOdyT0QIfwiywIE-13" value="aluno" style="swimlane;fontStyle=1;align=center;verticalAlign=top;childLayout=stackLayout;horizontal=1;startSize=26;horizontalStack=0;resizeParent=1;resizeParentMax=0;resizeLast=0;collapsible=1;marginBottom=0;whiteSpace=wrap;html=1;" vertex="1" parent="1">
          <mxGeometry x="480" y="20" width="160" height="92" as="geometry" />
        </mxCell>
        <mxCell id="Lf1C1IOdyT0QIfwiywIE-14" value="&lt;div&gt;+ RA&lt;br&gt;&lt;/div&gt;&lt;div&gt;+ consumo&lt;br&gt;&lt;/div&gt;" style="text;strokeColor=none;fillColor=none;align=left;verticalAlign=top;spacingLeft=4;spacingRight=4;overflow=hidden;rotatable=0;points=[[0,0.5],[1,0.5]];portConstraint=eastwest;whiteSpace=wrap;html=1;" vertex="1" parent="Lf1C1IOdyT0QIfwiywIE-13">
          <mxGeometry y="26" width="160" height="44" as="geometry" />
        </mxCell>
        <mxCell id="Lf1C1IOdyT0QIfwiywIE-15" value="" style="line;strokeWidth=1;fillColor=none;align=left;verticalAlign=middle;spacingTop=-1;spacingLeft=3;spacingRight=3;rotatable=0;labelPosition=right;points=[];portConstraint=eastwest;strokeColor=inherit;" vertex="1" parent="Lf1C1IOdyT0QIfwiywIE-13">
          <mxGeometry y="70" width="160" height="8" as="geometry" />
        </mxCell>
        <mxCell id="Lf1C1IOdyT0QIfwiywIE-16" value="&lt;div&gt;&lt;br&gt;&lt;/div&gt;&lt;div&gt;&lt;br&gt;&lt;/div&gt;" style="text;strokeColor=none;fillColor=none;align=left;verticalAlign=top;spacingLeft=4;spacingRight=4;overflow=hidden;rotatable=0;points=[[0,0.5],[1,0.5]];portConstraint=eastwest;whiteSpace=wrap;html=1;" vertex="1" parent="Lf1C1IOdyT0QIfwiywIE-13">
          <mxGeometry y="78" width="160" height="14" as="geometry" />
        </mxCell>
        <mxCell id="Lf1C1IOdyT0QIfwiywIE-17" value="tabelaNutricional" style="swimlane;fontStyle=1;align=center;verticalAlign=top;childLayout=stackLayout;horizontal=1;startSize=26;horizontalStack=0;resizeParent=1;resizeParentMax=0;resizeLast=0;collapsible=1;marginBottom=0;whiteSpace=wrap;html=1;" vertex="1" parent="1">
          <mxGeometry x="390" y="390" width="160" height="108" as="geometry" />
        </mxCell>
        <mxCell id="Lf1C1IOdyT0QIfwiywIE-18" value="&lt;div&gt;+ proteinas&lt;/div&gt;&lt;div&gt;+ carboidratos&lt;/div&gt;&lt;div&gt;+ gorduras&lt;/div&gt;&lt;div&gt;+ nutrientes&lt;br&gt;&lt;/div&gt;" style="text;strokeColor=none;fillColor=none;align=left;verticalAlign=top;spacingLeft=4;spacingRight=4;overflow=hidden;rotatable=0;points=[[0,0.5],[1,0.5]];portConstraint=eastwest;whiteSpace=wrap;html=1;" vertex="1" parent="Lf1C1IOdyT0QIfwiywIE-17">
          <mxGeometry y="26" width="160" height="64" as="geometry" />
        </mxCell>
        <mxCell id="Lf1C1IOdyT0QIfwiywIE-19" value="" style="line;strokeWidth=1;fillColor=none;align=left;verticalAlign=middle;spacingTop=-1;spacingLeft=3;spacingRight=3;rotatable=0;labelPosition=right;points=[];portConstraint=eastwest;strokeColor=inherit;" vertex="1" parent="Lf1C1IOdyT0QIfwiywIE-17">
          <mxGeometry y="90" width="160" height="18" as="geometry" />
        </mxCell>
        <mxCell id="Lf1C1IOdyT0QIfwiywIE-22" value="1...1" style="endArrow=open;html=1;endSize=12;startArrow=diamondThin;startSize=14;startFill=0;edgeStyle=orthogonalEdgeStyle;align=left;verticalAlign=top;rounded=0;entryX=0.5;entryY=0;entryDx=0;entryDy=0;exitX=0.498;exitY=0.993;exitDx=0;exitDy=0;exitPerimeter=0;" edge="1" parent="1" source="Lf1C1IOdyT0QIfwiywIE-16" target="Lf1C1IOdyT0QIfwiywIE-8">
          <mxGeometry x="-1" y="3" relative="1" as="geometry">
            <mxPoint x="650" y="130" as="sourcePoint" />
            <mxPoint x="650.56" y="177.87599999999998" as="targetPoint" />
          </mxGeometry>
        </mxCell>
        <mxCell id="Lf1C1IOdyT0QIfwiywIE-23" value="1...n" style="endArrow=open;html=1;endSize=12;startArrow=diamondThin;startSize=14;startFill=0;edgeStyle=orthogonalEdgeStyle;align=left;verticalAlign=top;rounded=0;exitX=0.5;exitY=1;exitDx=0;exitDy=0;entryX=0.5;entryY=0;entryDx=0;entryDy=0;" edge="1" parent="1" source="3keSKE4vALC_CuYDAisd-1" target="Lf1C1IOdyT0QIfwiywIE-4">
          <mxGeometry x="-1" y="3" relative="1" as="geometry">
            <mxPoint x="240" y="340" as="sourcePoint" />
            <mxPoint x="400" y="340" as="targetPoint" />
          </mxGeometry>
        </mxCell>
        <mxCell id="Lf1C1IOdyT0QIfwiywIE-24" value="1...n" style="text;html=1;align=center;verticalAlign=middle;resizable=0;points=[];autosize=1;strokeColor=none;fillColor=none;" vertex="1" parent="1">
          <mxGeometry x="180" y="378" width="50" height="30" as="geometry" />
        </mxCell>
        <mxCell id="Lf1C1IOdyT0QIfwiywIE-25" value="1...1" style="endArrow=open;html=1;endSize=12;startArrow=diamondThin;startSize=14;startFill=0;edgeStyle=orthogonalEdgeStyle;align=left;verticalAlign=bottom;rounded=0;exitX=1;exitY=0.5;exitDx=0;exitDy=0;entryX=0;entryY=0.409;entryDx=0;entryDy=0;entryPerimeter=0;" edge="1" parent="1" source="Lf1C1IOdyT0QIfwiywIE-5" target="Lf1C1IOdyT0QIfwiywIE-18">
          <mxGeometry x="-1" y="3" relative="1" as="geometry">
            <mxPoint x="310" y="430" as="sourcePoint" />
            <mxPoint x="470" y="430" as="targetPoint" />
          </mxGeometry>
        </mxCell>
        <mxCell id="Lf1C1IOdyT0QIfwiywIE-27" value="&lt;div&gt;&lt;br&gt;&lt;/div&gt;&lt;div&gt;&lt;br&gt;&lt;/div&gt;" style="endArrow=open;html=1;endSize=12;startArrow=diamondThin;startSize=14;startFill=0;edgeStyle=orthogonalEdgeStyle;align=center;verticalAlign=middle;rounded=0;exitX=0;exitY=0.5;exitDx=0;exitDy=0;entryX=1;entryY=0.5;entryDx=0;entryDy=0;labelPosition=center;verticalLabelPosition=middle;strokeColor=default;" edge="1" parent="1" source="Lf1C1IOdyT0QIfwiywIE-9" target="3keSKE4vALC_CuYDAisd-2">
          <mxGeometry x="-1" y="3" relative="1" as="geometry">
            <mxPoint x="300" y="250" as="sourcePoint" />
            <mxPoint x="460" y="250" as="targetPoint" />
          </mxGeometry>
        </mxCell>
        <mxCell id="4sDp3C3mJDD_6uqLKXCf-17" value="1...n" style="endArrow=open;html=1;endSize=12;startArrow=diamondThin;startSize=14;startFill=0;edgeStyle=orthogonalEdgeStyle;align=left;verticalAlign=top;rounded=0;exitX=0.5;exitY=1;exitDx=0;exitDy=0;entryX=0.504;entryY=-0.04;entryDx=0;entryDy=0;entryPerimeter=0;" edge="1" parent="1" source="3keSKE4vALC_CuYDAisd-5" target="3keSKE4vALC_CuYDAisd-1">
          <mxGeometry x="-1" y="3" relative="1" as="geometry">
            <mxPoint x="190" y="170" as="sourcePoint" />
            <mxPoint x="190" y="230" as="targetPoint" />
          </mxGeometry>
        </mxCell>
        <mxCell id="4sDp3C3mJDD_6uqLKXCf-18" value="1...n" style="text;html=1;align=center;verticalAlign=middle;resizable=0;points=[];autosize=1;strokeColor=none;fillColor=none;" vertex="1" parent="1">
          <mxGeometry x="180" y="240" width="50" height="30" as="geometry" />
        </mxCell>
        <mxCell id="u5eRn1HK8_eCPN_-Qu_B-4" value="&lt;div&gt;1...1&lt;/div&gt;" style="text;html=1;align=center;verticalAlign=middle;resizable=0;points=[];autosize=1;strokeColor=none;fillColor=none;rotation=0;" vertex="1" parent="1">
          <mxGeometry x="550" y="160" width="50" height="30" as="geometry" />
        </mxCell>
        <mxCell id="u5eRn1HK8_eCPN_-Qu_B-8" value="&lt;div&gt;1...n&lt;/div&gt;" style="text;html=1;align=center;verticalAlign=middle;resizable=0;points=[];autosize=1;strokeColor=none;fillColor=none;rotation=0;" vertex="1" parent="1">
          <mxGeometry x="440" y="230" width="50" height="30" as="geometry" />
        </mxCell>
        <mxCell id="u5eRn1HK8_eCPN_-Qu_B-9" value="1...n" style="text;html=1;align=center;verticalAlign=middle;resizable=0;points=[];autosize=1;strokeColor=none;fillColor=none;rotation=0;" vertex="1" parent="1">
          <mxGeometry x="270" y="290" width="50" height="30" as="geometry" />
        </mxCell>
        <mxCell id="u5eRn1HK8_eCPN_-Qu_B-15" value="1...1" style="text;html=1;align=center;verticalAlign=middle;resizable=0;points=[];autosize=1;strokeColor=none;fillColor=none;" vertex="1" parent="1">
          <mxGeometry x="350" y="420" width="50" height="30" as="geometry" />
        </mxCell>
      </root>
    </mxGraphModel>
  </diagram>
</mxfile>
